<svg width="188" height="188" viewBox="0 0 188 188" fill="none" xmlns="http://www.w3.org/2000/svg">
<path d="M44.362 93.8814C44.362 94.0801 44.3523 94.2788 44.3328 94.4766C44.3134 94.6743 44.2842 94.8711 44.2454 95.0659C44.2065 95.2612 44.1579 95.4536 44.1006 95.644C44.0428 95.8345 43.9757 96.0215 43.8995 96.2052C43.8237 96.3888 43.7387 96.5681 43.6449 96.7435C43.5511 96.9188 43.4486 97.0894 43.3383 97.2545C43.2276 97.4202 43.1095 97.5796 42.9832 97.7336C42.8569 97.8871 42.7233 98.0343 42.5829 98.1747C42.442 98.3156 42.2948 98.4487 42.1413 98.575C41.9873 98.7013 41.8279 98.8194 41.6622 98.9302C41.4971 99.0404 41.3265 99.1425 41.1511 99.2362C40.9758 99.33 40.796 99.415 40.6124 99.4913C40.4282 99.5671 40.2412 99.6341 40.0507 99.6919C39.8603 99.7498 39.6679 99.7978 39.4726 99.8367C39.2773 99.8756 39.081 99.9047 38.8828 99.9242C38.6851 99.9436 38.4864 99.9533 38.2877 99.9533C38.0885 99.9533 37.8903 99.9436 37.6921 99.9242C37.4943 99.9047 37.2976 99.8756 37.1023 99.8367C36.9074 99.7978 36.7146 99.7498 36.5241 99.6919C36.3337 99.6341 36.1466 99.5671 35.963 99.4913C35.7794 99.415 35.5996 99.33 35.4242 99.2362C35.2488 99.1425 35.0783 99.0404 34.9126 98.9302C34.7475 98.8194 34.5876 98.7013 34.4341 98.575C34.2801 98.4487 34.1329 98.3156 33.9925 98.1747C33.8516 98.0343 33.718 97.8871 33.5922 97.7336C33.4658 97.5796 33.3473 97.4202 33.237 97.2545C33.1262 97.0894 33.0242 96.9188 32.9305 96.7435C32.8367 96.5681 32.7517 96.3888 32.6754 96.2052C32.5996 96.0215 32.5326 95.8345 32.4748 95.644C32.4169 95.4536 32.3688 95.2612 32.33 95.0659C32.2911 94.8711 32.262 94.6743 32.2425 94.4766C32.2231 94.2788 32.2129 94.0801 32.2129 93.8814C32.2129 93.6827 32.2231 93.484 32.2425 93.2863C32.262 93.0881 32.2911 92.8918 32.33 92.697C32.3688 92.5017 32.4169 92.3093 32.4748 92.1189C32.5326 91.9284 32.5996 91.7414 32.6754 91.5577C32.7517 91.3741 32.8367 91.1943 32.9305 91.0189C33.0242 90.8436 33.1262 90.6735 33.237 90.5079C33.3473 90.3427 33.4658 90.1828 33.5922 90.0293C33.718 89.8758 33.8516 89.7286 33.9925 89.5877C34.1329 89.4473 34.2801 89.3137 34.4341 89.1879C34.5876 89.0615 34.7475 88.943 34.9126 88.8327C35.0783 88.7224 35.2488 88.6199 35.4242 88.5262C35.5996 88.4324 35.7794 88.3479 35.963 88.2716C36.1466 88.1953 36.3337 88.1288 36.5241 88.0709C36.7146 88.0131 36.9074 87.965 37.1023 87.9262C37.2976 87.8873 37.4943 87.8582 37.6921 87.8387C37.8903 87.8193 38.0885 87.8096 38.2877 87.8096C38.4864 87.8096 38.6851 87.8193 38.8828 87.8387C39.081 87.8582 39.2773 87.8873 39.4726 87.9262C39.6679 87.965 39.8603 88.0131 40.0507 88.0709C40.2412 88.1288 40.4282 88.1953 40.6124 88.2716C40.796 88.3479 40.9758 88.4324 41.1511 88.5262C41.3265 88.6199 41.4971 88.7224 41.6622 88.8327C41.8279 88.943 41.9873 89.0615 42.1413 89.1879C42.2948 89.3137 42.442 89.4473 42.5829 89.5877C42.7233 89.7286 42.8569 89.8758 42.9832 90.0293C43.1095 90.1828 43.2276 90.3427 43.3383 90.5079C43.4486 90.6735 43.5511 90.8436 43.6449 91.0189C43.7387 91.1943 43.8237 91.3741 43.8995 91.5577C43.9757 91.7414 44.0428 91.9284 44.1006 92.1189C44.1579 92.3093 44.2065 92.5017 44.2454 92.697C44.2842 92.8918 44.3134 93.0881 44.3328 93.2863C44.3523 93.484 44.362 93.6827 44.362 93.8814Z" fill="#00D8FF"/>
<mask id="mask0_201_438" style="mask-type:luminance" maskUnits="userSpaceOnUse" x="3" y="65" width="85" height="58">
<path d="M3.43677 65.1016H87.3508V122.81H3.43677V65.1016Z" fill="white"/>
</mask>
<g mask="url(#mask0_201_438)">
<path d="M38.2889 81.5381C46.4445 81.5381 54.0215 82.708 59.7338 84.6741C66.617 87.0425 70.8486 90.6328 70.8486 93.8839C70.8486 97.2716 66.3639 101.086 58.9725 103.534C53.3846 105.384 46.0311 106.35 38.2889 106.35C30.3515 106.35 22.8347 105.444 17.1841 103.514C10.0346 101.071 5.72827 97.207 5.72827 93.8839C5.72827 90.659 9.7689 87.0964 16.5549 84.7314C22.2887 82.7332 30.0522 81.5381 38.2884 81.5381H38.2889Z" stroke="#00D8FF" stroke-width="2.90543"/>
</g>
<mask id="mask1_201_438" style="mask-type:luminance" maskUnits="userSpaceOnUse" x="3" y="62" width="72" height="64">
<path d="M3.43677 62.3164H74.1674V125.559H3.43677V62.3164Z" fill="white"/>
</mask>
<g mask="url(#mask1_201_438)">
<path d="M27.5356 87.7434C31.6102 80.6815 36.4087 74.7058 40.9663 70.7405C46.4576 65.9638 51.6822 64.0934 54.5 65.717C57.4358 67.4096 58.5008 73.1987 56.9296 80.8224C55.7432 86.5857 52.9055 93.4354 49.0378 100.14C45.0725 107.013 40.532 113.069 36.0361 116.996C30.3475 121.967 24.848 123.766 21.9685 122.106C19.174 120.496 18.1052 115.216 19.4456 108.159C20.5785 102.195 23.4211 94.8764 27.5341 87.7449L27.5356 87.7434Z" stroke="#00D8FF" stroke-width="2.90543"/>
</g>
<mask id="mask2_201_438" style="mask-type:luminance" maskUnits="userSpaceOnUse" x="3" y="62" width="72" height="64">
<path d="M3.43677 62.3164H74.2918V125.559H3.43677V62.3164Z" fill="white"/>
</mask>
<g mask="url(#mask2_201_438)">
<path d="M27.5457 100.158C23.4604 93.1044 20.678 85.9633 19.5169 80.0362C18.1192 72.895 19.1074 67.4353 21.9217 65.8063C24.8552 64.1088 30.4043 66.0779 36.2269 71.2456C40.629 75.1526 45.1492 81.0297 49.028 87.7268C53.0045 94.5935 55.9855 101.55 57.1447 107.405C58.6119 114.814 57.4246 120.474 54.547 122.139C51.7554 123.755 46.6465 122.045 41.1989 117.359C36.5962 113.399 31.6718 107.282 27.5457 100.157V100.158Z" stroke="#00D8FF" stroke-width="2.90543"/>
</g>
<path fill-rule="evenodd" clip-rule="evenodd" d="M105.715 109.397L98.2695 98.1528C102.033 97.821 105.423 95.0955 105.423 90.1167C105.423 85.05 101.826 81.8076 96.7805 81.8076H85.6997V109.376H89.1326V98.4219H94.6326L101.662 109.376L105.715 109.397ZM96.3699 95.4258H89.134V84.8858H96.3699C99.6381 84.8858 101.87 87.0346 101.87 90.1357C101.87 93.2367 99.6366 95.4292 96.3699 95.4292V95.4258ZM118.493 109.891C121.761 109.891 124.447 108.817 126.433 106.834L124.944 104.808C123.371 106.42 121.057 107.329 118.783 107.329C114.484 107.329 111.836 104.187 111.588 100.428H127.754V99.6414C127.754 93.6492 124.198 88.9357 118.159 88.9357C112.453 88.9357 108.319 93.6074 108.319 99.3936C108.319 105.636 112.579 109.876 118.491 109.876L118.493 109.891ZM124.698 98.1513H111.589C111.755 95.094 113.861 91.495 118.122 91.495C122.672 91.495 124.655 95.1742 124.698 98.1513ZM148.352 109.395V95.6722C148.352 90.8362 144.839 88.9337 140.62 88.9337C137.351 88.9337 134.789 90.0084 132.639 92.2412L134.086 94.3901C135.864 92.489 137.809 91.6208 140.207 91.6208C143.101 91.6208 145.252 93.1493 145.252 95.8364V99.432C143.639 97.5713 141.366 96.7031 138.635 96.7031C135.245 96.7031 131.645 98.8116 131.645 103.275C131.645 107.615 135.241 109.89 138.635 109.89C141.324 109.89 143.599 108.939 145.252 107.121V109.392L148.352 109.395ZM139.752 107.658C136.858 107.658 134.831 105.842 134.831 103.319C134.831 100.756 136.858 98.9374 139.752 98.9374C141.944 98.9374 144.052 99.7638 145.252 101.418V105.18C144.054 106.833 141.944 107.66 139.752 107.66V107.658ZM163.347 109.891C166.986 109.891 169.136 108.403 170.667 106.42L168.599 104.519C167.276 106.296 165.581 107.122 163.531 107.122C159.271 107.122 156.627 103.815 156.627 99.3936C156.627 94.9716 159.273 91.7064 163.531 91.7064C165.598 91.7064 167.293 92.4924 168.599 94.3094L170.667 92.4089C169.137 90.4243 166.986 88.9371 163.347 88.9371C157.392 88.9371 153.381 93.485 153.381 99.3951C153.381 105.347 157.392 109.877 163.347 109.877V109.891ZM180.056 109.891C181.873 109.891 182.992 109.354 183.778 108.611L182.87 106.296C182.455 106.75 181.646 107.122 180.76 107.122C179.397 107.122 178.733 106.048 178.733 104.559V92.1591H182.787V89.4317H178.733V83.9759H175.63V89.4317H172.322V92.1606H175.63V105.224C175.63 108.2 177.119 109.895 180.056 109.895V109.891Z" fill="#00D8FF"/>
</svg>
